<svg width="3581" height="3598" xmlns="http://www.w3.org/2000/svg" xmlns:xlink="http://www.w3.org/1999/xlink" xml:space="preserve" overflow="hidden"><defs><clipPath id="clip0"><rect x="1360" y="-350" width="3581" height="3598"/></clipPath><linearGradient x1="1014.73" y1="2397.69" x2="5037.27" y2="764.306" gradientUnits="userSpaceOnUse" spreadMethod="reflect" id="fill1"><stop offset="0" stop-color="#0C36F9"/><stop offset="0.7" stop-color="#00D6CF"/><stop offset="1" stop-color="#5BE27A"/></linearGradient><linearGradient x1="1565.36" y1="1817.19" x2="4777.64" y2="512.815" gradientUnits="userSpaceOnUse" spreadMethod="reflect" id="fill2"><stop offset="0" stop-color="#0C36F9"/><stop offset="0.7" stop-color="#00D6CF"/><stop offset="1" stop-color="#5BE27A"/></linearGradient><linearGradient x1="1918.89" y1="1564.64" x2="5020.11" y2="305.361" gradientUnits="userSpaceOnUse" spreadMethod="reflect" id="fill3"><stop offset="0" stop-color="#0C36F9"/><stop offset="0.7" stop-color="#00D6CF"/><stop offset="1" stop-color="#5BE27A"/></linearGradient><linearGradient x1="2598.31" y1="1392.9" x2="4981.7" y2="425.103" gradientUnits="userSpaceOnUse" spreadMethod="reflect" id="fill4"><stop offset="0" stop-color="#0C36F9"/><stop offset="0.7" stop-color="#00D6CF"/><stop offset="1" stop-color="#5BE27A"/></linearGradient><linearGradient x1="2969.74" y1="1470.14" x2="5093.26" y2="607.862" gradientUnits="userSpaceOnUse" spreadMethod="reflect" id="fill5"><stop offset="0" stop-color="#0C36F9"/><stop offset="0.7" stop-color="#00D6CF"/><stop offset="1" stop-color="#5BE27A"/></linearGradient><linearGradient x1="3181.82" y1="1636.2" x2="5106.18" y2="854.798" gradientUnits="userSpaceOnUse" spreadMethod="reflect" id="fill6"><stop offset="0" stop-color="#0C36F9"/><stop offset="0.7" stop-color="#00D6CF"/><stop offset="1" stop-color="#5BE27A"/></linearGradient><linearGradient x1="3435.99" y1="1726.9" x2="4822.01" y2="1164.1" gradientUnits="userSpaceOnUse" spreadMethod="reflect" id="fill7"><stop offset="0" stop-color="#0C36F9"/><stop offset="0.7" stop-color="#00D6CF"/><stop offset="1" stop-color="#5BE27A"/></linearGradient><linearGradient x1="3336.71" y1="1861.69" x2="4714.29" y2="1302.31" gradientUnits="userSpaceOnUse" spreadMethod="reflect" id="fill8"><stop offset="0" stop-color="#0C36F9"/><stop offset="0.7" stop-color="#00D6CF"/><stop offset="1" stop-color="#5BE27A"/></linearGradient><linearGradient x1="3300.21" y1="1869.77" x2="4473.79" y2="1393.23" gradientUnits="userSpaceOnUse" spreadMethod="reflect" id="fill9"><stop offset="0" stop-color="#0C36F9"/><stop offset="0.7" stop-color="#00D6CF"/><stop offset="1" stop-color="#5BE27A"/></linearGradient><linearGradient x1="3329.26" y1="1779.94" x2="4200.74" y2="1426.06" gradientUnits="userSpaceOnUse" spreadMethod="reflect" id="fill10"><stop offset="0" stop-color="#0C36F9"/><stop offset="0.7" stop-color="#00D6CF"/><stop offset="1" stop-color="#5BE27A"/></linearGradient><linearGradient x1="3251.64" y1="1703.41" x2="4130.36" y2="1346.59" gradientUnits="userSpaceOnUse" spreadMethod="reflect" id="fill11"><stop offset="0" stop-color="#0C36F9"/><stop offset="0.7" stop-color="#00D6CF"/><stop offset="1" stop-color="#5BE27A"/></linearGradient><linearGradient x1="3321.55" y1="1578.12" x2="4026.46" y2="1291.88" gradientUnits="userSpaceOnUse" spreadMethod="reflect" id="fill12"><stop offset="0" stop-color="#0C36F9"/><stop offset="0.7" stop-color="#00D6CF"/><stop offset="1" stop-color="#5BE27A"/></linearGradient><linearGradient x1="3412" y1="1480.87" x2="3995" y2="1244.13" gradientUnits="userSpaceOnUse" spreadMethod="reflect" id="fill13"><stop offset="0" stop-color="#0C36F9"/><stop offset="0.7" stop-color="#00D6CF"/><stop offset="1" stop-color="#5BE27A"/></linearGradient></defs><g clip-path="url(#clip0)" transform="translate(-1360 350)"><path d="M4648.83 1816.62 4024.84 279.384C3903.19-20.3372 3561.66-164.553 3262.05-42.7301L1725.38 582.092C1425.77 703.918 1281.51 1045.65 1403.18 1345.37L2027.17 2882.62C2148.84 3182.33 2490.35 3326.56 2789.96 3204.73L4326.64 2579.89C4626.23 2458.06 4770.48 2116.34 4648.83 1816.62Z" fill="url(#fill1)" fill-rule="evenodd"/><path d="M4224.86 2089.75 4492.88 696.982C4545.15 425.439 4367.51 162.997 4096.13 110.804L2704.16-156.907C2432.78-209.103 2170.41-31.2822 2118.16 240.261L1850.12 1633.03C1797.86 1904.57 1975.5 2167.01 2246.89 2219.21L3638.85 2486.91C3910.22 2539.11 4172.59 2361.29 4224.86 2089.75Z" fill="url(#fill2)" fill-rule="evenodd"/><path d="M3794.22 2088.68 4634.45 1214.9C4798.28 1044.53 4793.08 773.607 4622.84 609.773L3749.68-230.506C3579.43-394.34 3308.61-389.046 3144.79-218.68L2304.55 655.099C2140.72 825.465 2145.92 1096.39 2316.17 1260.23L3189.33 2100.5C3359.57 2264.34 3630.39 2259.05 3794.22 2088.68Z" fill="url(#fill3)" fill-rule="evenodd"/><path d="M3486.02 1887.37 4494.31 1652.18C4690.9 1606.33 4813.16 1409.67 4767.41 1212.92L4532.76 203.837C4487.01 7.09406 4290.58-115.224 4093.99-69.3716L3085.71 165.817C2889.12 211.672 2766.84 408.337 2812.59 605.08L3047.24 1614.17C3092.99 1810.91 3289.44 1933.23 3486.02 1887.37Z" fill="url(#fill4)" fill-rule="evenodd"/><path d="M3358.24 1599.02 4190.7 1900.28C4352.97 1959.01 4532.16 1874.95 4590.92 1712.53L4892.25 879.426C4951.01 717.001 4867.05 537.714 4704.75 478.979L3872.32 177.723C3710.02 118.988 3530.83 203.048 3472.08 365.473L3170.75 1198.58C3112 1361 3195.94 1540.29 3358.24 1599.02Z" fill="url(#fill5)" fill-rule="evenodd"/><path d="M3401.08 1333.4 3857.45 1937.01C3946.43 2054.71 4113.93 2077.91 4231.6 1988.83L4835 1532C4952.67 1442.92 4975.91 1275.3 4886.9 1157.6L4430.54 553.988C4341.57 436.291 4174.06 413.092 4056.4 502.168L3452.99 959.004C3335.34 1048.08 3312.1 1215.7 3401.08 1333.4Z" fill="url(#fill6)" fill-rule="evenodd"/><path d="M3555.59 1162.4 3601.84 1807.92C3610.86 1933.79 3720.12 2028.46 3845.89 2019.4L4490.99 1972.91C4616.75 1963.84 4711.42 1854.46 4702.41 1728.6L4656.15 1083.08C4647.14 957.217 4537.85 862.534 4412.09 871.601L3767 918.094C3641.22 927.161 3546.58 1036.54 3555.59 1162.4Z" fill="url(#fill7)" fill-rule="evenodd"/><path d="M3746.37 1111.98 3479.33 1596.28C3427.26 1690.7 3461.52 1809.47 3555.83 1861.55L4039.58 2128.68C4133.92 2180.76 4252.58 2146.44 4304.62 2052.02L4571.68 1567.72C4623.72 1473.3 4589.5 1354.53 4495.16 1302.45L4011.41 1035.32C3917.1 983.239 3798.43 1017.56 3746.37 1111.98Z" fill="url(#fill8)" fill-rule="evenodd"/><path d="M3905.53 1164.72 3489.17 1387.4C3408 1430.81 3377.33 1531.86 3420.67 1613.1L3643 2029.79C3686.35 2111.03 3787.29 2141.69 3868.48 2098.28L4284.83 1875.6C4366.01 1832.19 4396.66 1731.14 4353.33 1649.9L4131 1233.21C4087.67 1151.97 3986.72 1121.31 3905.53 1164.72Z" fill="url(#fill9)" fill-rule="evenodd"/><path d="M3995.59 1276.89 3593.23 1242.53C3514.79 1235.82 3445.75 1294 3439.02 1372.46L3404.53 1774.92C3397.81 1853.37 3455.95 1922.41 3534.39 1929.11L3936.76 1963.48C4015.22 1970.17 4084.24 1912 4090.97 1833.54L4125.47 1431.09C4132.2 1352.62 4074.05 1283.59 3995.59 1276.89Z" fill="url(#fill10)" fill-rule="evenodd"/><path d="M4008 1398.58 3735.69 1186.68C3682.59 1145.36 3606.04 1154.92 3564.7 1208.03L3352.7 1480.44C3311.37 1533.56 3320.91 1610.11 3374 1651.42L3646.31 1863.32C3699.41 1904.64 3775.96 1895.08 3817.29 1841.97L4029.29 1569.55C4070.64 1516.44 4061.09 1439.89 4008 1398.58Z" fill="url(#fill11)" fill-rule="evenodd"/><path d="M3960.24 1491.96 3863.65 1213.11C3844.82 1158.73 3785.44 1129.93 3731.05 1148.78L3452.15 1245.44C3397.75 1264.3 3368.93 1323.66 3387.77 1378.04L3484.35 1656.9C3503.19 1711.28 3562.54 1740.07 3616.94 1721.22L3895.86 1624.56C3950.23 1605.7 3979.07 1546.34 3960.24 1491.96Z" fill="url(#fill12)" fill-rule="evenodd"/><path d="M3881.84 1536.37 3942.38 1291.76C3954.17 1244.07 3925.08 1195.85 3877.39 1184.06L3632.84 1123.62C3585.16 1111.83 3536.94 1140.94 3525.14 1188.64L3464.63 1433.24C3452.82 1480.94 3481.92 1529.15 3529.6 1540.94L3774.15 1601.38C3821.83 1613.17 3870.05 1584.06 3881.84 1536.37Z" fill="url(#fill13)" fill-rule="evenodd"/><path d="M3548 1259.43C3548 1230.47 3571.47 1207 3600.43 1207L3807.57 1207C3836.53 1207 3860 1230.47 3860 1259.43L3860 1466.57C3860 1495.53 3836.53 1519 3807.57 1519L3600.43 1519C3571.47 1519 3548 1495.53 3548 1466.57Z" fill-rule="evenodd"/><path d="M3729.4 1246.95 3750 1246.95 3750 1379.05 3729.4 1379.05ZM3653.81 1244C3663.74 1244 3672.78 1245.84 3680.94 1249.53 3689.1 1253.22 3696.3 1258.57 3702.56 1265.59L3687.84 1279.79C3683.3 1274.38 3678.27 1270.35 3672.75 1267.71 3667.24 1265.06 3660.92 1263.74 3653.81 1263.74 3644.97 1263.74 3636.91 1265.77 3629.61 1269.83 3622.32 1273.89 3616.52 1279.64 3612.23 1287.08 3607.94 1294.52 3605.79 1303.16 3605.79 1313 3605.79 1322.84 3607.94 1331.48 3612.23 1338.92 3616.52 1346.36 3622.32 1352.11 3629.61 1356.17 3636.91 1360.23 3644.97 1362.26 3653.81 1362.26 3668.52 1362.26 3681.03 1356.11 3691.34 1343.81L3706.24 1358.2C3699.86 1365.7 3692.19 1371.55 3683.24 1375.73 3674.29 1379.91 3664.48 1382 3653.81 1382 3641.05 1382 3629.4 1378.99 3618.85 1372.96 3608.3 1366.93 3600.02 1358.63 3594.01 1348.05 3588 1337.48 3585 1325.79 3585 1313 3585 1300.21 3588 1288.52 3594.01 1277.95 3600.02 1267.37 3608.3 1259.07 3618.85 1253.04 3629.4 1247.01 3641.05 1244 3653.81 1244Z" fill="#FFFFFF" fill-rule="evenodd"/><rect x="3585" y="1463" width="131" height="17.9999" fill="#FFFFFF"/></g></svg>