<?xml version="1.0" standalone="no"?><!DOCTYPE svg PUBLIC "-//W3C//DTD SVG 1.1//EN" "http://www.w3.org/Graphics/SVG/1.1/DTD/svg11.dtd"><svg t="1758206467685" class="icon" viewBox="0 0 1024 1024" version="1.1" xmlns="http://www.w3.org/2000/svg" p-id="10497" xmlns:xlink="http://www.w3.org/1999/xlink" width="128" height="128"><path d="M87.04 768h849.92c0-143.872-58.88-272.896-176.128-357.376L854.016 317.44c15.36-17.92 15.36-34.304 0-49.664-15.36-15.36-32.256-15.36-49.664 0L698.368 373.76c-57.856-30.72-119.808-46.08-186.368-46.08-68.608 0-131.584 15.36-189.44 46.592L216.576 267.776c-15.36-15.36-32.256-15.36-49.664 0-17.92 15.36-17.92 32.256 0 49.664l93.184 93.184C144.384 492.544 87.04 621.568 87.04 768z m616.96-239.616c28.16 0 50.688 22.528 50.688 50.688s-22.528 50.688-50.688 50.688-50.688-22.528-50.688-50.688 22.528-50.688 50.688-50.688z m-384.512 0c28.16 0 50.688 22.528 50.688 50.688s-22.528 50.688-50.688 50.688-50.688-22.528-50.688-50.688 22.528-50.688 50.688-50.688z" fill="#26CC6A" p-id="10498"></path></svg>