<?xml version="1.0" standalone="no"?><!DOCTYPE svg PUBLIC "-//W3C//DTD SVG 1.1//EN" "http://www.w3.org/Graphics/SVG/1.1/DTD/svg11.dtd"><svg t="1761900036518" class="icon" viewBox="0 0 1024 1024" version="1.1" xmlns="http://www.w3.org/2000/svg" p-id="3469" xmlns:xlink="http://www.w3.org/1999/xlink" width="128" height="128"><path d="M512 102.4c-225.28 0-409.6 184.32-409.6 409.6s184.32 409.6 409.6 409.6 409.6-184.32 409.6-409.6-184.32-409.6-409.6-409.6z m184.32 542.72c15.36 15.36 15.36 35.84 0 51.2s-35.84 15.36-51.2 0l-133.12-133.12-133.12 133.12c-15.36 15.36-35.84 15.36-51.2 0s-15.36-35.84 0-51.2l133.12-133.12-133.12-133.12c-15.36-15.36-15.36-35.84 0-51.2s35.84-15.36 51.2 0l133.12 133.12 133.12-133.12c15.36-15.36 35.84-15.36 51.2 0s15.36 35.84 0 51.2l-133.12 133.12 133.12 133.12z" fill="#c94f4f" p-id="3470"></path></svg>