<?xml version="1.0" standalone="no"?><!DOCTYPE svg PUBLIC "-//W3C//DTD SVG 1.1//EN" "http://www.w3.org/Graphics/SVG/1.1/DTD/svg11.dtd"><svg t="1758107607249" class="icon" viewBox="0 0 1024 1024" version="1.1" xmlns="http://www.w3.org/2000/svg" p-id="3348" xmlns:xlink="http://www.w3.org/1999/xlink" width="128" height="128"><path d="M588.288 998.912V651.776h114.176l17.408-137.728H588.288v-88.064c0-22.528 4.608-38.912 13.312-50.176 9.216-11.264 26.112-16.896 52.224-16.896h70.656V235.52c-24.064-3.584-58.368-5.632-102.4-5.632-51.712 0-93.184 15.872-124.416 47.616s-46.592 76.8-46.592 134.656v101.376H336.384v137.728H450.56v349.696C207.36 970.752 18.944 763.392 18.944 512c0-272.384 220.672-493.568 493.568-493.568S1006.08 239.104 1006.08 512c0 246.784-181.248 450.56-417.792 486.912z m-75.264 6.656H512h1.024z" p-id="3349" fill="#a5a5a7"></path></svg>