<svg width="128" height="128" xmlns="http://www.w3.org/2000/svg" xmlns:xlink="http://www.w3.org/1999/xlink" xml:space="preserve" overflow="hidden"><g transform="translate(-576 -296)"><path d="M640 411.2C668.48 411.2 691.2 388.48 691.2 360 691.2 331.52 668.48 308.8 640 308.8 611.52 308.8 588.8 331.52 588.8 360 588.8 388.48 611.52 411.2 640 411.2ZM644.928 391.168C643.584 392.512 642.432 393.408 640.256 393.408 637.824 393.6 635.584 392.448 634.688 390.72 633.664 389.504 633.088 386.816 633.344 385.216 633.344 384.768 633.664 381.76 633.792 380.928L635.584 358.208C635.584 355.968 636.032 353.728 636.928 352 637.376 350.656 638.72 349.76 640.512 349.76 641.856 349.76 643.2 350.656 643.648 352 644.544 354.24 644.992 356.032 644.992 358.208L646.208 380.48C646.656 384.512 646.656 383.168 646.656 385.408 646.656 387.584 646.208 389.376 644.928 391.168ZM635.072 328.384C636.416 327.04 638.208 326.592 639.552 326.592 641.344 326.592 643.136 327.04 644.48 328.384 645.824 329.728 646.72 331.52 646.72 333.696 646.72 335.488 646.272 337.28 644.928 338.624 643.584 339.968 641.792 340.864 640 340.864 638.208 340.864 636.416 339.968 635.072 338.624 633.728 337.28 633.28 335.488 633.28 333.696 633.344 331.52 633.792 329.728 635.072 328.384Z" fill="#1E90FF"/></g></svg>