<?xml version="1.0" standalone="no"?><!DOCTYPE svg PUBLIC "-//W3C//DTD SVG 1.1//EN" "http://www.w3.org/Graphics/SVG/1.1/DTD/svg11.dtd"><svg t="1760266991461" class="icon" viewBox="0 0 1024 1024" version="1.1" xmlns="http://www.w3.org/2000/svg" p-id="16433" xmlns:xlink="http://www.w3.org/1999/xlink" width="128" height="128"><path d="M514 111.6c-219.9 0-398.8 159.1-398.8 354.6 0 165.7 128.5 305.2 301.6 343.9l48.7 77.7c4.6 7.3 10.8 13.5 18.1 18.1 26.8 16.8 62.2 8.7 79-18.1l48.7-77.7c173.1-38.7 301.6-178.2 301.6-343.9-0.1-195.5-179-354.6-398.9-354.6zM324.2 531.9c-36.3 0-65.7-29.4-65.7-65.7 0-36.3 29.4-65.7 65.7-65.7 36.3 0 65.7 29.4 65.7 65.7 0 36.3-29.4 65.7-65.7 65.7z m189.8 0c-36.3 0-65.7-29.4-65.7-65.7 0-36.3 29.4-65.7 65.7-65.7 36.3 0 65.7 29.4 65.7 65.7 0 36.3-29.4 65.7-65.7 65.7z m189.8 0c-36.3 0-65.7-29.4-65.7-65.7 0-36.3 29.4-65.7 65.7-65.7 36.3 0 65.7 29.4 65.7 65.7 0 36.3-29.4 65.7-65.7 65.7z" fill="#ffffff" p-id="16434"></path></svg>