<?xml version="1.0" standalone="no"?><!DOCTYPE svg PUBLIC "-//W3C//DTD SVG 1.1//EN" "http://www.w3.org/Graphics/SVG/1.1/DTD/svg11.dtd"><svg t="1758205062536" class="icon" viewBox="0 0 1024 1024" version="1.1" xmlns="http://www.w3.org/2000/svg" p-id="18730" xmlns:xlink="http://www.w3.org/1999/xlink" width="128" height="128"><path d="M196.923077 630.153846v78.769231c0 13.277538 286.466462 35.515077 473.107692 78.769231 90.161231-20.898462 157.046154-46.692923 157.046154-78.769231v-78.769231c0-32.059077-66.884923-57.870769-157.046154-78.769231C483.387077 594.646154 196.923077 616.886154 196.923077 630.153846M196.923077 315.076923v78.769231c0 13.277538 286.466462 35.515077 473.107692 78.769231 90.161231-20.898462 157.046154-46.692923 157.046154-78.769231v-78.769231c0-32.059077-66.884923-57.870769-157.046154-78.769231C483.387077 279.569231 196.923077 301.809231 196.923077 315.076923" fill="#810c1d" p-id="18731" data-spm-anchor-id="a313x.search_index.0.i17.21c03a81L12KFn" class=""></path><path d="M196.923077 472.615385v236.307692c0-19.692308 630.153846-59.076923 630.153846-157.538462v-236.307692c0 98.461538-630.153846 137.846154-630.153846 157.538462M196.923077 157.538462v236.307692c0-19.692308 630.153846-59.076923 630.153846-157.538462V0C827.076923 98.461538 196.923077 137.846154 196.923077 157.538462M196.923077 787.692308v236.307692c0-19.692308 630.153846-59.076923 630.153846-157.538462v-236.307692c0 98.461538-630.153846 137.846154-630.153846 157.538462" fill="#d81e06" p-id="18732" data-spm-anchor-id="a313x.search_index.0.i18.21c03a81L12KFn" class="selected"></path></svg>