<?xml version="1.0" standalone="no"?><!DOCTYPE svg PUBLIC "-//W3C//DTD SVG 1.1//EN" "http://www.w3.org/Graphics/SVG/1.1/DTD/svg11.dtd"><svg t="1758205021099" class="icon" viewBox="0 0 1024 1024" version="1.1" xmlns="http://www.w3.org/2000/svg" p-id="16087" xmlns:xlink="http://www.w3.org/1999/xlink" width="128" height="128"><path d="M512 512m-512 0a512 512 0 1 0 1024 0 512 512 0 1 0-1024 0Z" fill="#004E8C" p-id="16088"></path><path d="M512 512m-512 0a512 512 0 1 0 1024 0 512 512 0 1 0-1024 0Z" fill="#FFFFFF" opacity=".1" p-id="16089"></path><path d="M512 0C366.592 0 236.032 60.416 142.848 157.696c4.608-4.608 9.728-9.216 14.336-13.312l722.944 722.944c-4.608 5.12-9.216 10.24-13.824 14.848 97.28-93.184 157.696-224.256 157.696-369.664C1024 229.376 794.624 0 512 0z" fill="#004E8C" p-id="16090"></path><path d="M880.128 866.816L157.184 143.872" fill="#FFFFFF" opacity=".1" p-id="16091"></path><path d="M532.48 310.272l-148.48 402.944H331.264L185.344 310.272h52.736l112.128 320c4.096 11.776 6.656 23.552 8.192 35.84h1.024c1.536-12.288 4.608-24.576 9.216-36.352l114.176-320 49.664 0.512z m58.368 403.456V310.272h114.688c29.696-1.536 59.392 7.68 82.944 25.6 19.968 16.384 31.232 40.96 30.72 66.56 0.512 21.504-6.144 42.496-18.944 59.392-12.8 17.408-30.72 29.696-51.2 35.84v1.024c24.576 2.048 48.128 12.8 65.536 30.72 16.896 18.432 25.6 43.008 24.576 67.584 1.024 32.256-12.8 62.976-36.864 83.968-26.112 22.016-59.392 33.28-93.696 31.744h-117.76z m48.128-360.96v130.048h48.128c22.016 1.024 43.52-5.632 60.416-19.456 15.36-13.312 23.552-32.768 22.016-52.736 0-38.912-25.6-58.88-77.312-58.88l-53.248 1.024z m0 173.056V670.72h64c23.04 1.536 45.568-5.632 64-19.456 15.36-13.312 24.064-33.28 23.04-53.76 0-47.616-32.256-71.168-97.28-71.168l-53.76-0.512z" fill="#FFFFFF" p-id="16092"></path></svg>