<svg width="1165" height="1178" xmlns="http://www.w3.org/2000/svg" xmlns:xlink="http://www.w3.org/1999/xlink" xml:space="preserve" overflow="hidden"><defs><clipPath id="clip0"><rect x="1592" y="670" width="1165" height="1178"/></clipPath><linearGradient x1="1490.97" y1="1407.54" x2="2587.83" y2="1395.33" gradientUnits="userSpaceOnUse" spreadMethod="reflect" id="fill1"><stop offset="0" stop-color="#0C36F9"/><stop offset="0.48" stop-color="#F013CD"/><stop offset="1" stop-color="#FB9541"/></linearGradient><linearGradient x1="1875.2" y1="1367.75" x2="2972.12" y2="1372.67" gradientUnits="userSpaceOnUse" spreadMethod="reflect" id="fill2"><stop offset="0" stop-color="#FB9541"/><stop offset="0.41" stop-color="#FB9541"/><stop offset="1" stop-color="#F013CD"/></linearGradient><linearGradient x1="1812" y1="1446" x2="2588" y2="670" gradientUnits="userSpaceOnUse" spreadMethod="reflect" id="fill3"><stop offset="0" stop-color="#FB9541"/><stop offset="0.19" stop-color="#FB9541"/><stop offset="0.47" stop-color="#F013CD"/><stop offset="0.92" stop-color="#0C36F9"/><stop offset="1" stop-color="#0C36F9"/></linearGradient></defs><g clip-path="url(#clip0)" transform="translate(-1592 -670)"><path d="M2337.72 1512.4C2235.29 1894.46 2045.49 1949.87 1768.23 1678.71 1490.97 1407.55 1542.14 1216.56 1921.83 1105.66 2301.52 994.751 2440.15 1130.33 2337.72 1512.4Z" fill="url(#fill1)" fill-rule="evenodd"/><path d="M2720.21 1485.81C2611.84 1866.23 2421.2 1918.67 2148.2 1643.22 1875.2 1367.77 1929.34 1177.61 2310.71 1072.64 2692.09 967.664 2828.59 1105.39 2720.21 1485.81Z" fill="url(#fill2)" fill-rule="evenodd"/><path d="M2329.31 1349C1984.39 1543 1812 1446 1812 1058 1812 670 1984.39 573 2329.31 767 2674.23 961 2674.23 1155 2329.31 1349Z" fill="url(#fill3)" fill-rule="evenodd"/><path d="M1875 1022.06C1875 961.83 1923.83 913 1984.06 913L2415.94 913C2476.17 913 2525 961.83 2525 1022.06L2525 1452.94C2525 1513.17 2476.17 1562 2415.94 1562L1984.06 1562C1923.83 1562 1875 1513.17 1875 1452.94Z" fill-rule="evenodd"/><path d="M1953 1465.5C1953 1454.73 1961.73 1446 1972.5 1446L2206.5 1446C2217.27 1446 2226 1454.73 2226 1465.5L2226 1465.5C2226 1476.27 2217.27 1485 2206.5 1485L1972.5 1485C1961.73 1485 1953 1476.27 1953 1465.5Z" fill="#FFFFFF" fill-rule="evenodd"/><text fill="#FFFFFF" font-family="Google Sans Medium,Google Sans Medium_MSFontService,sans-serif" font-weight="500" font-size="303" transform="matrix(1 0 0 1 1946.74 1211)">A</text><text fill="#FFFFFF" font-family="Google Sans Medium,Google Sans Medium_MSFontService,sans-serif" font-weight="500" font-size="303" transform="matrix(1 0 0 1 2157 1211)">D</text></g></svg>