<svg width="1133" height="1064" xmlns="http://www.w3.org/2000/svg" xmlns:xlink="http://www.w3.org/1999/xlink" xml:space="preserve" overflow="hidden"><defs><clipPath id="clip0"><rect x="1646" y="715" width="1133" height="1064"/></clipPath><linearGradient x1="1560.51" y1="1403.68" x2="2620.07" y2="1119.78" gradientUnits="userSpaceOnUse" spreadMethod="reflect" id="fill1"><stop offset="0" stop-color="#45DD7F"/><stop offset="0.22" stop-color="#45DD7F"/><stop offset="0.45985" stop-color="#2299CA"/><stop offset="0.63" stop-color="#0A68FF"/><stop offset="1" stop-color="#0A68FF"/></linearGradient><linearGradient x1="1716.3" y1="890.563" x2="2775.86" y2="1174.49" gradientUnits="userSpaceOnUse" spreadMethod="reflect" id="fill2"><stop offset="0" stop-color="#0A68FF"/><stop offset="0.1" stop-color="#0A68FF"/><stop offset="0.7" stop-color="#2FC781"/><stop offset="1" stop-color="#2FC781"/></linearGradient><linearGradient x1="2003.5" y1="1003.5" x2="2778.5" y2="1779.5" gradientUnits="userSpaceOnUse" spreadMethod="reflect" id="fill3"><stop offset="0" stop-color="#45DD7F"/><stop offset="0.52" stop-color="#45DD7F"/><stop offset="0.78" stop-color="#FFFF00"/><stop offset="1" stop-color="#FFC000"/></linearGradient></defs><g clip-path="url(#clip0)" transform="translate(-1646 -715)"><path d="M2406.82 1295.22C2402.36 1690.76 2232.24 1791.51 1896.38 1597.6 1560.52 1403.69 1562.71 1205.98 1903.03 1004.36 2243.34 802.735 2411.27 899.689 2406.82 1295.22Z" fill="url(#fill1)" fill-rule="evenodd"/><path d="M2503.45 1219.79C2301.83 1560.11 2104.12 1562.3 1910.21 1226.44 1716.3 890.585 1817.06 720.46 2212.59 716.005 2608.12 711.551 2705.08 879.48 2503.45 1219.79Z" fill="url(#fill2)" fill-rule="evenodd"/><path d="M2520.31 1682.12C2175.39 1875.87 2003 1779 2003 1391.5 2003 1004 2175.39 907.125 2520.31 1100.88 2865.23 1294.62 2865.23 1488.38 2520.31 1682.12Z" fill="url(#fill3)" fill-rule="evenodd"/><path d="M1875 1022.06C1875 961.83 1923.83 913 1984.06 913L2415.94 913C2476.17 913 2525 961.83 2525 1022.06L2525 1452.94C2525 1513.17 2476.17 1562 2415.94 1562L1984.06 1562C1923.83 1562 1875 1513.17 1875 1452.94Z" fill-rule="evenodd"/><path d="M1953 1465.5C1953 1454.73 1961.73 1446 1972.5 1446L2206.5 1446C2217.27 1446 2226 1454.73 2226 1465.5L2226 1465.5C2226 1476.27 2217.27 1485 2206.5 1485L1972.5 1485C1961.73 1485 1953 1476.27 1953 1465.5Z" fill="#FFFFFF" fill-rule="evenodd"/><text fill="#FFFFFF" font-family="Google Sans Medium,Google Sans Medium_MSFontService,sans-serif" font-weight="500" font-size="303" transform="matrix(1 0 0 1 1946.74 1211)">AM</text></g></svg>