<svg width="1300" height="1299" xmlns="http://www.w3.org/2000/svg" xmlns:xlink="http://www.w3.org/1999/xlink" xml:space="preserve" overflow="hidden"><defs><clipPath id="clip0"><rect x="1550" y="588" width="1300" height="1299"/></clipPath><linearGradient x1="-2.80278" y1="3.04334" x2="812.016" y2="810.162" gradientUnits="userSpaceOnUse" spreadMethod="reflect" id="fill1"><stop offset="0" stop-color="#0092FF"/><stop offset="0.72" stop-color="#0092FF"/><stop offset="1" stop-color="#42D0F5"/></linearGradient><linearGradient x1="-144.966" y1="254.838" x2="1037.66" y2="928.103" gradientUnits="userSpaceOnUse" spreadMethod="reflect" id="fill2"><stop offset="0" stop-color="#0073F3"/><stop offset="0.21" stop-color="#0073F3"/><stop offset="0.53" stop-color="#002AEE"/><stop offset="1" stop-color="#002AEE"/></linearGradient></defs><g clip-path="url(#clip0)" transform="translate(-1550 -588)"><path d="M477.685 1.10955C496.294 2.45611 515.12 5.20911 534.163 9.36832 579.667 21.7606 622.211 43.5694 661.794 74.794 733.285 131.225 779.147 203.278 799.378 290.951 811.363 342.927 812.315 396.432 802.231 451.465L802.231 451.465 791.631 499.023C760.231 608.509 683.151 705.93 580.952 755.856L543.555 774.03C515.307 787.415 482.716 797.083 445.784 803.035 412.802 808.337 381.195 811.589 350.963 812.793 307.395 814.501 261.381 807.776 224.04 802.278 186.697 796.782 139.377 784.024 126.913 779.807 114.449 775.589 40.4908 746.533 0.0708956 714.518 24.4904 718.568 143.931 728.502 208.745 714.801 273.558 701.101 379.851 641.85 431.597 583.573 483.342 525.297 533.644 453.73 519.214 365.142 504.782 276.553 443.706 251.457 405.932 240.909 368.159 230.362 282.155 248.241 292.575 301.854 302.994 355.47 346.569 345.481 377.062 349.356 407.554 353.233 428.583 392.311 414.605 434.78 400.627 477.248 348.989 498.705 274.913 482.312 200.839 465.919 142.294 390.919 134.659 312.052 127.959 243 145.019 181.348 185.838 127.094 219.746 82.0145 263.159 48.6351 316.079 26.9569 367.99 5.68519 421.859-2.93058 477.685 1.10955Z" fill="url(#fill1)" fill-rule="evenodd" transform="matrix(-0.967274 0.253733 0.253733 0.967274 2393.47 984.843)"/><path d="M795.194 448.221C719.019 431.585 646.324 437.447 577.11 465.809 524.19 487.489 480.777 520.868 446.869 565.948 406.049 620.201 388.989 681.853 395.69 750.905 403.325 829.772 458.041 880.585 531.883 900.857 572.109 911.907 619.409 905.93 648.219 873.632 654.171 866.949 658.107 859.842 660.025 852.312 664.221 835.919 660.989 815.587 646.609 805.646 632.229 795.706 597.537 802.645 573.743 792.668 549.95 782.691 532.147 753.603 540.406 721.416 548.664 689.229 579.051 667.166 629.392 666.562 679.733 665.96 716.964 675.911 744.971 699.52 772.977 723.129 794.384 764.804 797.434 808.219 800.484 851.634 789.992 911.166 763.27 960.01 736.548 1008.85 686.831 1065.52 637.105 1101.28 587.379 1137.05 526.167 1165 464.917 1174.58 403.667 1184.17 331.515 1192.09 269.606 1158.78 207.699 1125.47 137.669 1048.54 93.4695 974.722 49.2695 900.901 14.4728 808.679 4.40631 715.85 2.08855 694.481 1.62532 678.527 0.405413 654.938-0.765397 632.203 1.62532 604.296 3.43052 583.439 13.5785 466.492 59.5858 352.157 133.086 259.653 177.06 204.295 229.525 157.336 290.477 118.777 337.753 88.8698 388.884 61.6946 441.576 42.8134 510.594 18.0451 582.224 4.10782 656.464 1.00149 710.847-1.2752 784.326 0.259951 821.199 7.71018 858.072 15.1609 869.866 33.2204 877.705 45.7038 885.543 58.1872 893.796 77.5561 892.454 102.799 882.209 159.588 869.15 214.728 853.277 268.216 835.485 328.177 816.125 388.179 795.194 448.221Z" fill="url(#fill2)" fill-rule="evenodd" transform="matrix(-0.967274 0.253733 0.253733 0.967274 2534.56 494.02)"/></g></svg>