<svg width="3132" height="3134" xmlns="http://www.w3.org/2000/svg" xmlns:xlink="http://www.w3.org/1999/xlink" xml:space="preserve" overflow="hidden"><defs><clipPath id="clip0"><rect x="660" y="-121" width="3132" height="3134"/></clipPath><linearGradient x1="-51.6827" y1="106.583" x2="1461.68" y2="840.418" gradientUnits="userSpaceOnUse" spreadMethod="reflect" id="fill1"><stop offset="0" stop-color="#0073F3"/><stop offset="0.0166667" stop-color="#0072F3"/><stop offset="0.0333333" stop-color="#0072F3"/><stop offset="0.05" stop-color="#0172F3"/><stop offset="0.0666667" stop-color="#0172F3"/><stop offset="0.0833333" stop-color="#0172F3"/><stop offset="0.1" stop-color="#0272F4"/><stop offset="0.116667" stop-color="#0271F4"/><stop offset="0.133333" stop-color="#0271F4"/><stop offset="0.15" stop-color="#0371F4"/><stop offset="0.166667" stop-color="#0370F4"/><stop offset="0.183333" stop-color="#0370F4"/><stop offset="0.2" stop-color="#0470F5"/><stop offset="0.216667" stop-color="#046FF5"/><stop offset="0.233333" stop-color="#046FF5"/><stop offset="0.25" stop-color="#056EF5"/><stop offset="0.266667" stop-color="#056DF5"/><stop offset="0.283333" stop-color="#056DF5"/><stop offset="0.3" stop-color="#056CF5"/><stop offset="0.316667" stop-color="#066BF6"/><stop offset="0.333333" stop-color="#066BF6"/><stop offset="0.35" stop-color="#066AF6"/><stop offset="0.366667" stop-color="#0669F6"/><stop offset="0.383333" stop-color="#0768F6"/><stop offset="0.4" stop-color="#0768F6"/><stop offset="0.416667" stop-color="#0767F6"/><stop offset="0.433333" stop-color="#0766F6"/><stop offset="0.45" stop-color="#0865F7"/><stop offset="0.466667" stop-color="#0864F7"/><stop offset="0.483333" stop-color="#0863F7"/><stop offset="0.5" stop-color="#0862F7"/><stop offset="0.516667" stop-color="#0861F7"/><stop offset="0.533333" stop-color="#0960F7"/><stop offset="0.55" stop-color="#095FF7"/><stop offset="0.566667" stop-color="#095DF7"/><stop offset="0.583333" stop-color="#095CF7"/><stop offset="0.6" stop-color="#095BF7"/><stop offset="0.616667" stop-color="#0A5AF8"/><stop offset="0.633333" stop-color="#0A59F8"/><stop offset="0.65" stop-color="#0A57F8"/><stop offset="0.666667" stop-color="#0A56F8"/><stop offset="0.683333" stop-color="#0A55F8"/><stop offset="0.7" stop-color="#0A53F8"/><stop offset="0.716667" stop-color="#0A52F8"/><stop offset="0.733333" stop-color="#0A50F8"/><stop offset="0.75" stop-color="#0B4FF8"/><stop offset="0.766667" stop-color="#0B4DF8"/><stop offset="0.783333" stop-color="#0B4CF8"/><stop offset="0.8" stop-color="#0B4AF8"/><stop offset="0.816667" stop-color="#0B49F8"/><stop offset="0.833333" stop-color="#0B47F8"/><stop offset="0.85" stop-color="#0B46F8"/><stop offset="0.866667" stop-color="#0B44F8"/><stop offset="0.883333" stop-color="#0B42F8"/><stop offset="0.9" stop-color="#0B40F8"/><stop offset="0.916667" stop-color="#0B3FF8"/><stop offset="0.933333" stop-color="#0B3DF8"/><stop offset="0.95" stop-color="#0B3BF8"/><stop offset="0.966667" stop-color="#0B39F8"/><stop offset="0.983333" stop-color="#0B37F8"/><stop offset="1" stop-color="#0C36F9"/></linearGradient><linearGradient x1="-25.8341" y1="1215.09" x2="1568.83" y2="34.9073" gradientUnits="userSpaceOnUse" spreadMethod="reflect" id="fill2"><stop offset="0" stop-color="#0073F3"/><stop offset="0.0107527" stop-color="#0074F2"/><stop offset="0.0215054" stop-color="#0076F2"/><stop offset="0.0322581" stop-color="#0078F2"/><stop offset="0.0430108" stop-color="#007AF2"/><stop offset="0.0537634" stop-color="#007CF2"/><stop offset="0.0645161" stop-color="#007EF2"/><stop offset="0.0752688" stop-color="#007FF2"/><stop offset="0.0860215" stop-color="#0081F2"/><stop offset="0.0967742" stop-color="#0083F2"/><stop offset="0.107527" stop-color="#0085F2"/><stop offset="0.11828" stop-color="#0086F2"/><stop offset="0.129032" stop-color="#0088F2"/><stop offset="0.139785" stop-color="#008AF2"/><stop offset="0.150538" stop-color="#008BF2"/><stop offset="0.16129" stop-color="#008DF2"/><stop offset="0.172043" stop-color="#008FF2"/><stop offset="0.182796" stop-color="#0090F1"/><stop offset="0.193548" stop-color="#0092F1"/><stop offset="0.204301" stop-color="#0093F1"/><stop offset="0.215054" stop-color="#0095F1"/><stop offset="0.225806" stop-color="#0096F1"/><stop offset="0.236559" stop-color="#0098F1"/><stop offset="0.247312" stop-color="#0099F1"/><stop offset="0.258065" stop-color="#009BF0"/><stop offset="0.268817" stop-color="#009CF0"/><stop offset="0.27957" stop-color="#009EF0"/><stop offset="0.290323" stop-color="#009FF0"/><stop offset="0.301075" stop-color="#00A0F0"/><stop offset="0.311828" stop-color="#00A2EF"/><stop offset="0.322581" stop-color="#00A3EF"/><stop offset="0.333333" stop-color="#00A5EF"/><stop offset="0.344086" stop-color="#00A6EF"/><stop offset="0.354839" stop-color="#00A7EF"/><stop offset="0.365591" stop-color="#00A8EE"/><stop offset="0.376344" stop-color="#00AAEE"/><stop offset="0.387097" stop-color="#00ABEE"/><stop offset="0.397849" stop-color="#00ACEE"/><stop offset="0.408602" stop-color="#00ADED"/><stop offset="0.419355" stop-color="#00AFED"/><stop offset="0.430108" stop-color="#00B0ED"/><stop offset="0.44086" stop-color="#00B1ED"/><stop offset="0.451613" stop-color="#00B2EC"/><stop offset="0.462366" stop-color="#00B3EC"/><stop offset="0.473118" stop-color="#00B4EC"/><stop offset="0.483871" stop-color="#00B5EC"/><stop offset="0.494624" stop-color="#00B6EB"/><stop offset="0.505376" stop-color="#00B7EB"/><stop offset="0.516129" stop-color="#00B8EB"/><stop offset="0.526882" stop-color="#00B9EA"/><stop offset="0.537634" stop-color="#00BAEA"/><stop offset="0.548387" stop-color="#00BBEA"/><stop offset="0.55914" stop-color="#00BCE9"/><stop offset="0.569892" stop-color="#00BDE9"/><stop offset="0.580645" stop-color="#00BEE9"/><stop offset="0.591398" stop-color="#00BFE8"/><stop offset="0.602151" stop-color="#00C0E8"/><stop offset="0.612903" stop-color="#00C1E8"/><stop offset="0.623656" stop-color="#00C1E7"/><stop offset="0.634409" stop-color="#00C2E7"/><stop offset="0.645161" stop-color="#00C3E7"/><stop offset="0.655914" stop-color="#00C4E6"/><stop offset="0.666667" stop-color="#00C5E6"/><stop offset="0.677419" stop-color="#00C5E5"/><stop offset="0.688172" stop-color="#00C6E5"/><stop offset="0.698925" stop-color="#00C7E5"/><stop offset="0.709677" stop-color="#00C7E4"/><stop offset="0.72043" stop-color="#00C8E4"/><stop offset="0.731183" stop-color="#00C8E3"/><stop offset="0.741935" stop-color="#00C9E3"/><stop offset="0.752688" stop-color="#00CAE3"/><stop offset="0.763441" stop-color="#00CAE2"/><stop offset="0.774194" stop-color="#00CBE2"/><stop offset="0.784946" stop-color="#00CBE1"/><stop offset="0.795699" stop-color="#00CCE1"/><stop offset="0.806452" stop-color="#00CCE0"/><stop offset="0.817204" stop-color="#00CDE0"/><stop offset="0.827957" stop-color="#00CDE0"/><stop offset="0.83871" stop-color="#00CDDF"/><stop offset="0.849462" stop-color="#00CEDF"/><stop offset="0.860215" stop-color="#00CEDE"/><stop offset="0.870968" stop-color="#00CEDE"/><stop offset="0.88172" stop-color="#00CFDD"/><stop offset="0.892473" stop-color="#00CFDD"/><stop offset="0.903226" stop-color="#00CFDC"/><stop offset="0.913979" stop-color="#00D0DC"/><stop offset="0.924731" stop-color="#00D0DB"/><stop offset="0.935484" stop-color="#00D0DB"/><stop offset="0.946237" stop-color="#00D0DA"/><stop offset="0.956989" stop-color="#00D0DA"/><stop offset="0.967742" stop-color="#00D0D9"/><stop offset="0.978495" stop-color="#00D0D9"/><stop offset="0.989247" stop-color="#00D0D8"/><stop offset="1" stop-color="#00D1D8"/></linearGradient><linearGradient x1="-5.61491" y1="6.17981" x2="2037.62" y2="1862.82" gradientUnits="userSpaceOnUse" spreadMethod="reflect" id="fill3"><stop offset="0" stop-color="#00D1D8"/><stop offset="0.0107527" stop-color="#01D1D7"/><stop offset="0.0215054" stop-color="#03D1D7"/><stop offset="0.0322581" stop-color="#05D2D7"/><stop offset="0.0430108" stop-color="#07D2D7"/><stop offset="0.0537634" stop-color="#08D2D7"/><stop offset="0.0645161" stop-color="#0AD2D7"/><stop offset="0.0752688" stop-color="#0CD3D7"/><stop offset="0.0860215" stop-color="#0ED3D7"/><stop offset="0.0967742" stop-color="#0FD3D6"/><stop offset="0.107527" stop-color="#11D4D6"/><stop offset="0.11828" stop-color="#13D4D6"/><stop offset="0.129032" stop-color="#14D4D5"/><stop offset="0.139785" stop-color="#16D5D5"/><stop offset="0.150538" stop-color="#17D5D5"/><stop offset="0.16129" stop-color="#19D5D4"/><stop offset="0.172043" stop-color="#1BD6D4"/><stop offset="0.182796" stop-color="#1CD6D4"/><stop offset="0.193548" stop-color="#1ED6D3"/><stop offset="0.204301" stop-color="#1FD6D3"/><stop offset="0.215054" stop-color="#21D7D2"/><stop offset="0.225806" stop-color="#22D7D2"/><stop offset="0.236559" stop-color="#24D7D1"/><stop offset="0.247312" stop-color="#25D8D1"/><stop offset="0.258065" stop-color="#27D8D0"/><stop offset="0.268817" stop-color="#28D8CF"/><stop offset="0.27957" stop-color="#29D8CF"/><stop offset="0.290323" stop-color="#2BD9CE"/><stop offset="0.301075" stop-color="#2CD9CE"/><stop offset="0.311828" stop-color="#2DD9CD"/><stop offset="0.322581" stop-color="#2FD9CC"/><stop offset="0.333333" stop-color="#30DACC"/><stop offset="0.344086" stop-color="#31DACB"/><stop offset="0.354839" stop-color="#32DACA"/><stop offset="0.365591" stop-color="#34DAC9"/><stop offset="0.376344" stop-color="#35DAC8"/><stop offset="0.387097" stop-color="#36DBC8"/><stop offset="0.397849" stop-color="#37DBC7"/><stop offset="0.408602" stop-color="#39DBC6"/><stop offset="0.419355" stop-color="#3ADBC5"/><stop offset="0.430108" stop-color="#3BDCC4"/><stop offset="0.44086" stop-color="#3CDCC3"/><stop offset="0.451613" stop-color="#3DDCC2"/><stop offset="0.462366" stop-color="#3EDCC1"/><stop offset="0.473118" stop-color="#3FDCC0"/><stop offset="0.483871" stop-color="#40DDBF"/><stop offset="0.494624" stop-color="#41DDBE"/><stop offset="0.505376" stop-color="#42DDBD"/><stop offset="0.516129" stop-color="#43DDBC"/><stop offset="0.526882" stop-color="#44DDBB"/><stop offset="0.537634" stop-color="#45DDBA"/><stop offset="0.548387" stop-color="#46DEB9"/><stop offset="0.55914" stop-color="#47DEB8"/><stop offset="0.569892" stop-color="#48DEB7"/><stop offset="0.580645" stop-color="#49DEB6"/><stop offset="0.591398" stop-color="#4ADEB4"/><stop offset="0.602151" stop-color="#4ADEB3"/><stop offset="0.612903" stop-color="#4BDFB2"/><stop offset="0.623656" stop-color="#4CDFB1"/><stop offset="0.634409" stop-color="#4DDFAF"/><stop offset="0.645161" stop-color="#4DDFAE"/><stop offset="0.655914" stop-color="#4EDFAD"/><stop offset="0.666667" stop-color="#4FDFAC"/><stop offset="0.677419" stop-color="#50DFAA"/><stop offset="0.688172" stop-color="#50E0A9"/><stop offset="0.698925" stop-color="#51E0A7"/><stop offset="0.709677" stop-color="#52E0A6"/><stop offset="0.72043" stop-color="#52E0A5"/><stop offset="0.731183" stop-color="#53E0A3"/><stop offset="0.741935" stop-color="#53E0A2"/><stop offset="0.752688" stop-color="#54E0A0"/><stop offset="0.763441" stop-color="#54E09F"/><stop offset="0.774194" stop-color="#55E09D"/><stop offset="0.784946" stop-color="#55E19C"/><stop offset="0.795699" stop-color="#56E19A"/><stop offset="0.806452" stop-color="#56E199"/><stop offset="0.817204" stop-color="#57E197"/><stop offset="0.827957" stop-color="#57E196"/><stop offset="0.83871" stop-color="#58E194"/><stop offset="0.849462" stop-color="#58E192"/><stop offset="0.860215" stop-color="#58E191"/><stop offset="0.870968" stop-color="#59E18F"/><stop offset="0.88172" stop-color="#59E18D"/><stop offset="0.892473" stop-color="#59E18C"/><stop offset="0.903226" stop-color="#59E18A"/><stop offset="0.913979" stop-color="#5AE188"/><stop offset="0.924731" stop-color="#5AE186"/><stop offset="0.935484" stop-color="#5AE185"/><stop offset="0.946237" stop-color="#5AE183"/><stop offset="0.956989" stop-color="#5AE181"/><stop offset="0.967742" stop-color="#5AE17F"/><stop offset="0.978495" stop-color="#5AE17D"/><stop offset="0.989247" stop-color="#5AE17B"/><stop offset="1" stop-color="#5BE27A"/></linearGradient><linearGradient x1="2340.46" y1="-16.7773" x2="11.545" y2="1585.78" gradientUnits="userSpaceOnUse" spreadMethod="reflect" id="fill4"><stop offset="0" stop-color="#5BE27A"/><stop offset="0.56" stop-color="#FCF84A"/><stop offset="1" stop-color="#FDB60D"/></linearGradient><linearGradient x1="-1.83804" y1="1.99579" x2="532.497" y2="531.282" gradientUnits="userSpaceOnUse" spreadMethod="reflect" id="fill5"><stop offset="0" stop-color="#0092FF"/><stop offset="0.72" stop-color="#0092FF"/><stop offset="1" stop-color="#42D0F5"/></linearGradient><linearGradient x1="-95.0644" y1="167.116" x2="680.468" y2="608.624" gradientUnits="userSpaceOnUse" spreadMethod="reflect" id="fill6"><stop offset="0" stop-color="#0073F3"/><stop offset="0.21" stop-color="#0073F3"/><stop offset="0.53" stop-color="#002AEE"/><stop offset="1" stop-color="#002AEE"/></linearGradient></defs><g clip-path="url(#clip0)" transform="translate(-660 121)"><path d="M1376.17 802.7 511.9 71.4081C378.481-38.5048 181.254-19.411 71.3824 114.056-38.4909 247.523-19.404 444.821 114.015 554.732 142.221 577.969 174.278 596.085 208.731 608.259L212.398 608.259 220.956 610.704 1308.94 942.11C1316.75 945.124 1325.02 946.778 1333.39 947.001 1376.59 946.103 1410.88 910.343 1409.98 867.127 1409.44 840.935 1395.83 816.752 1373.73 802.7Z" fill="url(#fill1)" fill-rule="evenodd" transform="matrix(1 0 0 -1 660 2379)"/><path d="M1542.99 229.393C1543.98 103.698 1442.9 0.998193 1317.22 0.00770805 1272.27-0.346862 1228.21 12.6219 1190.62 37.28L135.954 678.475C-6.65257 776.403-42.8801 971.408 55.0381 1114.03 152.955 1256.65 347.937 1292.88 490.543 1194.96 497.337 1190.29 503.945 1185.36 510.349 1180.17L1456.12 409.271 1463.46 403.152C1513.63 359.1 1542.99 296.695 1542.99 229.393Z" fill="url(#fill2)" fill-rule="evenodd" transform="matrix(1 0 0 -1 666 3013)"/><path d="M1983.13 1602.29 383.363 61.0907C291.16-24.7023 146.872-19.5002 61.0852 72.7111-24.7001 164.922-19.4984 309.224 72.7046 395.018L75.1507 398.687 1775.21 1829.8C1838.67 1886.52 1936.09 1881.04 1992.81 1817.57 2048.62 1755.11 2044.32 1659.5 1983.13 1602.29Z" fill="url(#fill3)" fill-rule="evenodd" transform="matrix(1 0 0 -1 1760 3006)"/><path d="M2350.78 155.396C2351.47 70.2671 2283.02 0.696134 2197.89 0.00513752 2164.94-0.262014 2132.77 10.0361 2106.1 29.3892L171.904 976.279C17.554 1054.34-44.2864 1242.75 33.7812 1397.1 111.848 1551.45 300.26 1613.29 454.611 1535.22 468.625 1528.13 482.087 1520 494.881 1510.89L2285.94 281.403C2327.53 252.043 2352 205.555 2352 155.396Z" fill="url(#fill4)" fill-rule="evenodd" transform="matrix(1 0 0 -1 1439 1448)"/><path d="M313.253 0.727613C325.456 1.61065 337.802 3.41599 350.289 6.14348 380.129 14.27 408.029 28.5716 433.986 49.0478 480.868 86.054 510.943 133.304 524.21 190.798 532.07 224.882 532.694 259.969 526.081 296.058L526.081 296.058 519.13 327.245C498.538 399.044 447.992 462.93 380.972 495.67L356.448 507.587C337.924 516.365 316.552 522.705 292.332 526.608 270.704 530.085 249.977 532.218 230.152 533.007 201.581 534.127 171.406 529.717 146.919 526.112 122.431 522.508 91.3995 514.142 83.2263 511.376 75.0523 508.61 26.5527 489.555 0.0464914 468.561 16.0601 471.217 94.3859 477.731 136.889 468.747 179.392 459.763 249.096 420.908 283.029 382.691 316.962 344.475 349.949 297.544 340.486 239.45 331.022 181.356 290.97 164.899 266.199 157.982 241.428 151.065 185.029 162.789 191.862 197.948 198.695 233.107 227.27 226.557 247.267 229.098 267.263 231.641 281.053 257.267 271.886 285.117 262.72 312.966 228.857 327.037 180.281 316.287 131.705 305.537 93.3122 256.354 88.3053 204.635 83.912 159.353 95.0994 118.923 121.868 83.3451 144.103 53.7829 172.573 31.8935 207.276 17.6776 241.318 3.72819 276.643-1.92179 313.253 0.727613Z" fill="url(#fill5)" fill-rule="evenodd" transform="matrix(-0.967274 0.253733 0.253733 0.967274 2266.69 1259.21)"/><path d="M521.467 293.931C471.513 283.021 423.842 286.866 378.453 305.465 343.75 319.682 315.281 341.571 293.045 371.133 266.276 406.711 255.088 447.14 259.482 492.423 264.49 544.142 300.371 577.464 348.794 590.757 375.173 598.004 406.191 594.084 425.084 572.904 428.987 568.521 431.568 563.86 432.827 558.923 435.578 548.172 433.459 534.839 424.029 528.321 414.598 521.802 391.848 526.352 376.245 519.81 360.642 513.267 348.967 494.192 354.383 473.085 359.799 451.977 379.726 437.509 412.738 437.113 445.75 436.718 470.165 443.244 488.531 458.726 506.897 474.208 520.935 501.537 522.935 530.008 524.935 558.478 518.055 597.517 500.531 629.548 483.008 661.579 450.405 698.739 417.796 722.188 385.187 745.645 345.046 763.978 304.88 770.259 264.714 776.547 217.398 781.742 176.8 759.894 136.203 738.053 90.2797 687.606 61.2948 639.196 32.3096 590.786 9.49086 530.31 2.88954 469.435 1.36962 455.422 1.06584 444.959 0.265859 429.491-0.501926 414.581 1.06584 396.28 2.24964 382.603 8.90438 305.913 39.0747 230.935 87.2741 170.274 116.111 133.971 150.516 103.177 190.487 77.8907 221.489 58.2784 255.02 40.4576 289.573 28.0758 334.834 11.8335 381.807 2.69379 430.491 0.656747 466.154-0.836243 514.339 0.170468 538.52 5.05613 562.7 9.94209 570.434 21.7851 575.575 29.9713 580.715 38.1575 586.127 50.8592 585.247 67.4127 578.528 104.654 569.964 140.813 559.555 175.889 547.888 215.21 535.192 254.557 521.467 293.931Z" fill="url(#fill6)" fill-rule="evenodd" transform="matrix(-0.967274 0.253733 0.253733 0.967274 2359.21 937.344)"/></g></svg>