<svg width="2580" height="787" xmlns="http://www.w3.org/2000/svg" xmlns:xlink="http://www.w3.org/1999/xlink" xml:space="preserve" overflow="hidden"><defs><clipPath id="clip0"><rect x="926" y="850" width="2580" height="787"/></clipPath><linearGradient x1="-1.19575" y1="1.20151" x2="504.991" y2="504.991" gradientUnits="userSpaceOnUse" spreadMethod="reflect" id="fill1"><stop offset="0" stop-color="#0092FF"/><stop offset="0.72" stop-color="#0092FF"/><stop offset="1" stop-color="#42D0F5"/></linearGradient><linearGradient x1="-76.2636" y1="101.076" x2="632.011" y2="635.482" gradientUnits="userSpaceOnUse" spreadMethod="reflect" id="fill2"><stop offset="0" stop-color="#0073F3"/><stop offset="0.21" stop-color="#0073F3"/><stop offset="0.53" stop-color="#002AEE"/><stop offset="1" stop-color="#002AEE"/></linearGradient></defs><g clip-path="url(#clip0)" transform="translate(-926 -850)"><path d="M297.402 0.6024C308.99 1.44091 320.712 3.15512 332.571 5.74503 360.905 13.4615 387.396 27.0413 412.044 46.4844 456.56 81.6237 485.118 126.49 497.715 181.082 505.178 213.447 505.771 246.763 499.492 281.032L499.492 281.032 492.891 310.645C473.339 378.82 425.343 439.483 361.705 470.571L338.419 481.887C320.829 490.221 300.535 496.242 277.538 499.948 257.001 503.25 237.32 505.275 218.494 506.024 191.365 507.087 162.713 502.9 139.461 499.477 116.209 496.054 86.7436 488.111 78.9825 485.484 71.2214 482.858 25.1688 464.765 0 444.83 15.2056 447.351 89.5794 453.537 129.937 445.006 170.296 436.475 236.483 399.581 268.704 363.293 300.925 327.005 332.248 282.442 323.262 227.279 314.275 172.117 276.244 156.49 252.723 149.922 229.202 143.354 175.649 154.487 182.137 187.872 188.626 221.256 215.759 215.037 234.746 217.45 253.733 219.864 266.828 244.197 258.124 270.642 249.42 297.086 217.265 310.447 171.14 300.239 125.015 290.032 88.5601 243.33 83.8058 194.221 79.6337 151.224 90.2564 112.834 115.674 79.0514 136.788 50.9806 163.821 30.1958 196.773 16.6971 229.097 3.45155 262.64-1.91335 297.402 0.6024Z" fill="url(#fill1)" fill-rule="evenodd" transform="matrix(-0.967274 0.253733 0.253733 0.967274 1362.61 1081.59)"/><path d="M495.095 279.08C447.662 268.721 402.396 272.371 359.298 290.032 326.346 303.531 299.313 324.316 278.199 352.387 252.781 386.169 242.158 424.559 246.33 467.557 251.085 516.665 285.156 548.306 331.136 560.929 356.184 567.81 385.637 564.088 403.576 543.977 407.282 539.815 409.733 535.389 410.928 530.701 413.541 520.493 411.528 507.833 402.574 501.643 393.619 495.453 372.017 499.774 357.202 493.562 342.386 487.349 331.3 469.236 336.443 449.194 341.585 429.151 360.506 415.413 391.853 415.038 423.2 414.662 446.382 420.859 463.822 435.56 481.261 450.261 494.591 476.211 496.49 503.245 498.389 530.279 491.856 567.348 475.217 597.763 458.577 628.177 427.619 663.462 396.656 685.731 365.693 708 327.576 725.409 289.437 731.376 251.298 737.343 206.37 742.276 167.821 721.534 129.271 700.792 85.6654 652.891 58.1428 606.924 30.6201 560.956 8.95277 503.531 2.68449 445.729 1.24132 432.422 0.952818 422.488 0.19324 407.799-0.535719 393.642 0.952818 376.265 2.07688 363.278 8.39596 290.457 37.044 219.262 82.8113 161.662 110.193 127.191 142.862 97.9509 180.816 73.9406 210.254 55.3179 242.092 38.3962 274.903 26.6392 317.88 11.2165 362.483 2.53798 408.71 0.603761 442.574-0.814012 488.327 0.141981 511.288 4.7811 534.248 9.42045 541.592 20.666 546.473 28.4392 551.354 36.2123 556.493 48.273 555.657 63.9912 549.278 99.3532 541.146 133.688 531.262 166.994 520.184 204.331 508.128 241.693 495.095 279.08Z" fill="url(#fill2)" fill-rule="evenodd" transform="matrix(-0.967274 0.253733 0.253733 0.967274 1450.46 775.958)"/><path d="M2346.13 1523.37C2344.52 1523.21 2342.84 1523.78 2340.95 1525.08 2338.74 1526.6 2336.72 1528.37 2334.64 1530.06 2325.98 1537.09 2319.28 1537.06 2310.66 1529.99 2308.55 1528.26 2306.46 1526.47 2304.2 1524.94 2302.42 1523.73 2300.79 1523.21 2299.22 1523.37L2297.03 1524.57 2292.25 1529.21 2288.24 1534.86 2285.45 1541.03 2283.62 1547.68 2283.12 1554.37 2283.62 1561.07 2285.45 1567.72 2288.24 1573.89 2292.25 1579.53 2297.03 1584.18 2299.22 1585.37C2300.79 1585.54 2302.42 1585.02 2304.2 1583.81 2306.46 1582.28 2308.55 1580.49 2310.66 1578.76 2319.28 1571.69 2325.98 1571.66 2334.64 1578.69 2336.72 1580.38 2338.74 1582.15 2340.95 1583.66 2344.74 1586.28 2347.66 1585.94 2350.93 1582.73 2356.88 1576.93 2360.6 1569.7 2362.09 1562.1L2362.63 1556.62 2362.84 1554.37 2362.63 1552.13 2362.09 1546.65C2360.6 1539.05 2356.88 1531.82 2350.93 1526.02 2349.3 1524.42 2347.75 1523.53 2346.13 1523.37ZM3182.73 1514.32C3176.13 1514.32 3170.01 1515.93 3164.35 1519.14 3158.7 1522.35 3154.19 1526.94 3150.81 1532.9 3147.44 1538.85 3145.75 1545.98 3145.75 1554.27 3145.75 1562.67 3147.45 1569.92 3150.85 1576 3154.26 1582.09 3158.77 1586.73 3164.39 1589.92 3170.01 1593.12 3176.13 1594.72 3182.73 1594.72 3189.31 1594.72 3195.41 1593.12 3201.03 1589.93 3206.65 1586.73 3211.17 1582.08 3214.59 1575.97 3218.01 1569.86 3219.72 1562.62 3219.72 1554.27 3219.72 1546.02 3218.02 1538.91 3214.64 1532.93 3211.25 1526.95 3206.73 1522.36 3201.07 1519.14 3195.42 1515.93 3189.31 1514.32 3182.73 1514.32ZM2719.82 1512.56C2711.55 1512.56 2704.57 1515.01 2698.87 1519.92 2693.18 1524.83 2689.26 1530.48 2687.12 1536.87L2751.77 1536.87C2751.46 1534.41 2750.15 1531.14 2747.84 1527.07 2745.54 1523 2742.01 1519.56 2737.25 1516.76 2732.5 1513.96 2726.69 1512.56 2719.82 1512.56ZM2897.47 1487.82 2931.99 1487.82 2956.55 1574.72 2983.97 1487.82 3016.35 1487.82 3043.52 1574.69 3068.08 1487.82 3102.13 1487.82 3060.34 1620.97 3027.39 1620.97 2999.43 1533.64 2971.71 1620.97 2939.22 1620.97ZM3345.29 1484.04C3351.82 1484.04 3357.88 1485.16 3363.48 1487.39L3363.48 1520.11C3354.01 1517.42 3346.52 1516.08 3341.01 1516.08 3335.13 1516.08 3329.92 1517.62 3325.38 1520.69 3320.85 1523.76 3317.24 1527.92 3314.58 1533.17 3311.91 1538.42 3310.57 1544.19 3310.57 1550.49L3310.57 1620.97 3277.73 1620.97 3277.73 1487.82 3309.31 1487.82 3309.31 1502.19 3312.01 1498.22C3314.54 1495.59 3317.68 1493.13 3321.43 1490.86 3328.94 1486.31 3336.89 1484.04 3345.29 1484.04ZM3182.73 1483.79C3196.15 1483.79 3208.19 1486.93 3218.85 1493.21 3229.51 1499.49 3237.8 1508.01 3243.7 1518.77 3249.61 1529.52 3252.56 1541.36 3252.56 1554.27 3252.56 1567.45 3249.6 1579.45 3243.66 1590.25 3237.72 1601.06 3229.44 1609.56 3218.81 1615.73 3208.18 1621.91 3196.15 1625 3182.73 1625 3169.28 1625 3157.25 1621.91 3146.62 1615.73 3135.99 1609.56 3127.71 1601.07 3121.79 1590.29 3115.86 1579.51 3112.9 1567.5 3112.9 1554.27 3112.9 1541.14 3115.85 1529.21 3121.74 1518.48 3127.64 1507.74 3135.92 1499.28 3146.58 1493.08 3157.24 1486.89 3169.29 1483.79 3182.73 1483.79ZM2719.82 1483.79C2733.24 1483.79 2744.91 1486.77 2754.83 1492.74 2764.75 1498.7 2772.28 1506.8 2777.42 1517.06 2782.55 1527.31 2785.12 1538.79 2785.12 1551.5 2785.12 1553.93 2784.75 1557.72 2784.01 1562.87L2685.86 1562.87C2686.79 1572.38 2690.75 1580.15 2697.73 1586.18 2704.72 1592.21 2712.83 1595.22 2722.09 1595.22 2729.46 1595.22 2735.84 1593.55 2741.23 1590.19 2746.62 1586.84 2751.37 1581.72 2755.48 1574.84L2782.6 1587.55C2776.09 1599.97 2767.78 1609.32 2757.66 1615.59 2747.54 1621.86 2735.43 1625 2721.33 1625 2708.22 1625 2696.47 1621.95 2686.09 1615.86 2675.71 1609.76 2667.61 1601.36 2661.77 1590.66 2655.93 1579.96 2653.01 1567.92 2653.01 1554.52 2653.01 1541.94 2655.83 1530.25 2661.46 1519.43 2667.09 1508.62 2674.99 1499.98 2685.15 1493.5 2695.32 1487.03 2706.88 1483.79 2719.82 1483.79ZM2023.87 1483.79C2038.47 1483.79 2050.96 1487.13 2061.33 1493.79 2071.7 1500.46 2079.13 1510.2 2083.62 1523.02L2054.2 1534.69C2048.26 1521.11 2037.9 1514.32 2023.11 1514.32 2016.71 1514.32 2010.82 1515.96 2005.42 1519.24 2000.03 1522.52 1995.72 1527.19 1992.48 1533.24 1989.25 1539.3 1987.64 1546.31 1987.64 1554.27 1987.64 1562.36 1989.26 1569.49 1992.51 1575.66 1995.76 1581.83 2000.08 1586.55 2005.45 1589.82 2010.83 1593.09 2016.71 1594.72 2023.11 1594.72 2030.65 1594.72 2037.09 1593.06 2042.44 1589.73 2047.79 1586.41 2052.22 1581.02 2055.74 1573.59L2084.63 1585.87C2079.41 1598.65 2071.62 1608.37 2061.28 1615.02 2050.94 1621.67 2038.47 1625 2023.87 1625 2010.59 1625 1998.68 1621.95 1988.13 1615.86 1977.58 1609.77 1969.39 1601.37 1963.55 1590.67 1957.71 1579.97 1954.79 1567.83 1954.79 1554.27 1954.79 1540.81 1957.7 1528.75 1963.51 1518.1 1969.32 1507.45 1977.52 1499.06 1988.09 1492.96 1998.67 1486.85 2010.6 1483.79 2023.87 1483.79ZM2322.66 1483.75C2361.72 1483.75 2393.39 1515.37 2393.39 1554.37 2393.39 1593.38 2361.72 1625 2322.66 1625 2283.59 1625 2251.92 1593.38 2251.92 1554.37 2251.92 1515.37 2283.59 1483.75 2322.66 1483.75ZM2822.8 1451.59 2855.65 1451.59 2855.65 1487.82 2886.88 1487.82 2886.88 1517.09 2855.65 1517.09 2855.65 1574.89C2855.65 1581.25 2856.86 1585.71 2859.28 1588.28 2861.25 1590.9 2864.89 1592.21 2870.21 1592.21 2872.78 1592.21 2875.01 1591.88 2876.9 1591.23 2878.79 1590.57 2882.29 1589.22 2887.39 1587.17L2887.39 1618.32C2880.54 1621.43 2872.96 1622.98 2864.67 1622.98 2858.56 1622.98 2852.85 1622.01 2847.55 1620.07 2842.24 1618.13 2837.87 1615.53 2834.43 1612.28 2826.68 1604.54 2822.8 1594.09 2822.8 1580.93L2822.8 1517.09 2800.38 1517.09 2800.38 1487.82 2822.8 1487.82ZM3383.47 1436 3416.31 1436 3416.31 1537.89 3465.99 1487.82 3504.49 1487.82 3504.49 1492.72 3454.61 1541.61 3506 1616.35 3506 1620.97 3469.02 1620.97 3432.17 1562.87 3416.31 1579.73 3416.31 1620.97 3383.47 1620.97ZM2476.62 1436 2514.18 1436 2592.04 1562.59 2590.74 1534.74 2590.74 1436 2623.84 1436 2623.84 1620.97 2590.33 1620.97 2508.41 1487.58 2509.72 1516.11 2509.72 1620.97 2476.62 1620.97ZM2107.87 1436 2140.71 1436 2140.71 1486.93 2139.71 1501.08 2143.37 1496.81C2146.16 1494.37 2149.48 1492.11 2153.34 1490.03 2161.05 1485.87 2169.34 1483.79 2178.2 1483.79 2194.6 1483.79 2207.15 1488.62 2215.85 1498.28 2224.54 1507.93 2228.89 1520.89 2228.89 1537.16L2228.89 1620.97 2196.04 1620.97 2196.04 1540.94C2196.04 1531.98 2193.73 1525.31 2189.1 1520.91 2184.47 1516.52 2178.4 1514.32 2170.9 1514.32 2165.26 1514.32 2160.15 1515.95 2155.57 1519.21 2150.99 1522.46 2147.37 1526.79 2144.71 1532.18 2142.05 1537.57 2140.71 1543.34 2140.71 1549.49L2140.71 1620.97 2107.87 1620.97ZM1817 1436 1931.72 1436 1931.72 1467.79 1850.35 1467.79 1850.35 1512.72 1923.66 1512.72 1923.66 1544.25 1850.35 1544.25 1850.35 1589.19 1931.72 1589.19 1931.72 1620.97 1817 1620.97Z" fill="#FFFFFF" fill-rule="evenodd"/><path d="M3141.83 1257.52 3271.98 1257.52 3271.98 1311 3141.83 1311ZM3334.98 1152.88 3334.98 1259.38 3442.97 1259.38 3442.97 1152.88ZM3280.9 1100.44 3496.53 1100.44 3496.53 1311.29 3280.9 1311.29ZM2465.07 1093.46 2465.07 1158.25 2556.61 1158.25 2556.61 1093.46ZM2321.03 1093.46 2321.03 1158.25 2412.57 1158.25 2412.57 1093.46ZM2267.99 1042.61 2609.65 1042.61 2609.65 1209.64 2321.03 1209.64 2321.03 1253.58 2300.95 1312 2248.44 1312 2267.99 1246.79ZM1946.81 981.586 1946.81 1185.68 2039.09 1185.68 2039.09 981.586ZM2877.69 932.787 2842.81 1078.01 2879.15 1240.32 2915.49 1081.08ZM1898.01 931.261 2087.89 931.261 2087.89 1236 1898.01 1236ZM2759.13 915.301 2802.09 915.301 2820.47 1006.04 2838.85 915.301 2873.24 915.301 2881.89 915.301 2915.54 915.301 2937.07 1012.38 2957.73 915.301 3000.75 915.301 2959.54 1081.79 3003.92 1254.25 2961.08 1254.25 2937.87 1150.3 2915.56 1254.25 2842.1 1254.25 2820.47 1150.3 2798.84 1254.25 2755.97 1254.25 2798.75 1078.01ZM1870.04 907.611 1870.04 1259.11 2116.39 1259.11 2116.39 907.611ZM1817 855.169 2169.43 855.169 2169.43 1311.55 1817 1311.55ZM3293.04 854.488 3347.52 854.488 3341.72 875.07 3496.49 875.07 3496.49 927.042 3418.31 1001.42 3465.67 1039.93 3506 1039.93 3506 1091.83 3448.79 1091.83 3385.03 1034.31 3327.91 1091.83 3270.2 1091.83 3270.2 1039.93 3308.6 1039.93 3349.43 1002.91 3278.65 935.791 3344.17 935.791 3381.99 969.618 3431.84 927.513 3273.89 927.513ZM3224.41 854.379 3280.97 854.379 3200.67 979.964 3271.98 979.964 3271.98 1028.9 3199.62 1153.16 3271.98 1153.16 3271.98 1206.12 3141.83 1206.12 3141.83 1156.84 3214.21 1032.93 3141.83 1032.93 3141.83 983.552ZM2703.62 854.362 3056.06 854.362 3056.06 1311.29 2901.61 1311.29 2901.61 1260.45 3004.09 1260.45 3004.09 906.267 2755.6 906.267 2755.6 1310.98 2703.62 1310.98ZM2408.55 850 2463.7 850 2463.7 874.801 2619 874.801 2619 926.706 2463.7 926.706 2463.7 964.618 2608.44 964.618 2608.44 1015.46 2264.34 1015.46 2264.34 964.618 2408.55 964.618 2408.55 926.706 2253.78 926.706 2253.78 874.801 2408.55 874.801Z" fill="#FFFFFF" fill-rule="evenodd"/></g></svg>