<svg width="3088" height="768" xmlns="http://www.w3.org/2000/svg" xmlns:xlink="http://www.w3.org/1999/xlink" xml:space="preserve" overflow="hidden"><defs><clipPath id="clip0"><rect x="672" y="869" width="3088" height="768"/></clipPath><linearGradient x1="-1.19575" y1="1.20151" x2="504.991" y2="504.991" gradientUnits="userSpaceOnUse" spreadMethod="reflect" id="fill1"><stop offset="0" stop-color="#0092FF"/><stop offset="0.72" stop-color="#0092FF"/><stop offset="1" stop-color="#42D0F5"/></linearGradient><linearGradient x1="-76.2636" y1="101.076" x2="632.011" y2="635.482" gradientUnits="userSpaceOnUse" spreadMethod="reflect" id="fill2"><stop offset="0" stop-color="#0073F3"/><stop offset="0.21" stop-color="#0073F3"/><stop offset="0.53" stop-color="#002AEE"/><stop offset="1" stop-color="#002AEE"/></linearGradient></defs><g clip-path="url(#clip0)" transform="translate(-672 -869)"><path d="M297.402 0.6024C308.99 1.44091 320.712 3.15512 332.571 5.74503 360.905 13.4615 387.396 27.0413 412.044 46.4844 456.56 81.6237 485.118 126.49 497.715 181.082 505.178 213.447 505.771 246.763 499.492 281.032L499.492 281.032 492.891 310.645C473.339 378.82 425.343 439.483 361.705 470.571L338.419 481.887C320.829 490.221 300.535 496.242 277.538 499.948 257.001 503.25 237.32 505.275 218.494 506.024 191.365 507.087 162.713 502.9 139.461 499.477 116.209 496.054 86.7436 488.111 78.9825 485.484 71.2214 482.858 25.1688 464.765 0 444.83 15.2056 447.351 89.5794 453.537 129.937 445.006 170.296 436.475 236.483 399.581 268.704 363.293 300.925 327.005 332.248 282.442 323.262 227.279 314.275 172.117 276.244 156.49 252.723 149.922 229.202 143.354 175.649 154.487 182.137 187.872 188.626 221.256 215.759 215.037 234.746 217.45 253.733 219.864 266.828 244.197 258.124 270.642 249.42 297.086 217.265 310.447 171.14 300.239 125.015 290.032 88.5601 243.33 83.8058 194.221 79.6337 151.224 90.2564 112.834 115.674 79.0514 136.788 50.9806 163.821 30.1958 196.773 16.6971 229.097 3.45155 262.64-1.91335 297.402 0.6024Z" fill="url(#fill1)" fill-rule="evenodd" transform="matrix(-0.967274 0.253733 0.253733 0.967274 1108.97 1081.59)"/><path d="M495.095 279.08C447.662 268.721 402.396 272.371 359.298 290.032 326.346 303.531 299.313 324.316 278.199 352.387 252.781 386.169 242.158 424.559 246.33 467.557 251.085 516.665 285.156 548.306 331.136 560.929 356.184 567.81 385.637 564.088 403.576 543.977 407.282 539.815 409.733 535.389 410.928 530.701 413.541 520.493 411.528 507.833 402.574 501.643 393.619 495.453 372.017 499.774 357.202 493.562 342.386 487.349 331.3 469.236 336.443 449.194 341.585 429.151 360.506 415.413 391.853 415.038 423.2 414.662 446.382 420.859 463.822 435.56 481.261 450.261 494.591 476.211 496.49 503.245 498.389 530.279 491.856 567.348 475.217 597.763 458.577 628.177 427.619 663.462 396.656 685.731 365.693 708 327.576 725.409 289.437 731.376 251.298 737.343 206.37 742.276 167.821 721.534 129.271 700.792 85.6654 652.891 58.1428 606.924 30.6201 560.956 8.95277 503.531 2.68449 445.729 1.24132 432.422 0.952818 422.488 0.19324 407.799-0.535719 393.642 0.952818 376.265 2.07688 363.278 8.39596 290.457 37.044 219.262 82.8113 161.662 110.193 127.191 142.862 97.9509 180.816 73.9406 210.254 55.3179 242.092 38.3962 274.903 26.6392 317.88 11.2165 362.483 2.53798 408.71 0.603761 442.574-0.814012 488.327 0.141981 511.288 4.7811 534.248 9.42045 541.592 20.666 546.473 28.4392 551.354 36.2123 556.493 48.273 555.657 63.9912 549.278 99.3532 541.146 133.688 531.262 166.994 520.184 204.331 508.128 241.693 495.095 279.08Z" fill="url(#fill2)" fill-rule="evenodd" transform="matrix(-0.967274 0.253733 0.253733 0.967274 1196.82 775.958)"/><path d="M3286.3 1467.12 3455.6 1467.12 3455.6 1536.7 3286.3 1536.7ZM3537.55 1331.01 3537.55 1469.55 3678.02 1469.55 3678.02 1331.01ZM3467.2 1262.79 3747.69 1262.79 3747.69 1537.07 3467.2 1537.07ZM2405.99 1253.7 2405.99 1337.99 2525.06 1337.99 2525.06 1253.7ZM2218.62 1253.7 2218.62 1337.99 2337.69 1337.99 2337.69 1253.7ZM2149.63 1187.56 2594.05 1187.56 2594.05 1404.84 2218.62 1404.84 2218.62 1462.01 2192.51 1538 2124.21 1538 2149.63 1453.17ZM1731.85 1108.18 1731.85 1373.67 1851.88 1373.67 1851.88 1108.18ZM2942.72 1044.7 2897.34 1233.61 2944.61 1444.75 2991.88 1237.61ZM1668.37 1042.71 1915.36 1042.71 1915.36 1439.13 1668.37 1439.13ZM2788.5 1021.95 2844.38 1021.95 2868.28 1139.99 2892.19 1021.95 2936.92 1021.95 2948.18 1021.95 2991.95 1021.95 3019.95 1148.23 3046.82 1021.95 3102.78 1021.95 3049.19 1238.53 3106.91 1462.87 3051.18 1462.87 3020.99 1327.65 2991.97 1462.87 2896.42 1462.87 2868.28 1327.65 2840.15 1462.87 2784.38 1462.87 2840.03 1233.61ZM1631.99 1011.94 1631.99 1469.2 1952.44 1469.2 1952.44 1011.94ZM1563 943.724 2021.43 943.724 2021.43 1537.42 1563 1537.42ZM3482.99 942.838 3553.85 942.838 3546.3 969.613 3747.63 969.613 3747.63 1037.22 3645.94 1133.98 3707.54 1184.07 3760 1184.07 3760 1251.59 3685.58 1251.59 3602.64 1176.77 3528.34 1251.59 3453.28 1251.59 3453.28 1184.07 3503.23 1184.07 3556.34 1135.91 3464.27 1048.6 3549.5 1048.6 3598.69 1092.61 3663.54 1037.83 3458.08 1037.83ZM3393.72 942.696 3467.29 942.696 3362.83 1106.07 3455.6 1106.07 3455.6 1169.73 3361.47 1331.37 3455.6 1331.37 3455.6 1400.27 3286.3 1400.27 3286.3 1336.16 3380.44 1174.96 3286.3 1174.96 3286.3 1110.73ZM2716.29 942.674 3174.74 942.674 3174.74 1537.08 2973.82 1537.08 2973.82 1470.94 3107.12 1470.94 3107.12 1010.2 2783.9 1010.2 2783.9 1536.68 2716.29 1536.68ZM2332.47 937 2404.2 937 2404.2 969.263 2606.22 969.263 2606.22 1036.78 2404.2 1036.78 2404.2 1086.1 2592.48 1086.1 2592.48 1152.25 2144.89 1152.25 2144.89 1086.1 2332.47 1086.1 2332.47 1036.78 2131.16 1036.78 2131.16 969.263 2332.47 969.263Z" fill="#FFFFFF" fill-rule="evenodd"/></g></svg>