<svg width="2066" height="259" xmlns="http://www.w3.org/2000/svg" xmlns:xlink="http://www.w3.org/1999/xlink" xml:space="preserve" overflow="hidden"><defs><clipPath id="clip0"><rect x="1167" y="1108" width="2066" height="259"/></clipPath><linearGradient x1="2231.97" y1="1492.49" x2="2168.03" y2="982.507" gradientUnits="userSpaceOnUse" spreadMethod="reflect" id="fill1"><stop offset="0" stop-color="#21D789"/><stop offset="0.14" stop-color="#21D789"/><stop offset="0.3" stop-color="#00D6CF"/><stop offset="0.8" stop-color="#0C36F9"/><stop offset="1" stop-color="#0C36F9"/></linearGradient></defs><g clip-path="url(#clip0)" transform="translate(-1167 -1108)"><path d="M1547.92 1230.63C1545.75 1230.42 1543.49 1231.18 1540.94 1232.94 1537.98 1234.97 1535.26 1237.34 1532.46 1239.61 1520.81 1249.04 1511.8 1249.01 1500.22 1239.52 1497.38 1237.2 1494.57 1234.79 1491.54 1232.74 1489.14 1231.11 1486.95 1230.42 1484.84 1230.64L1481.89 1232.24 1475.47 1238.48 1470.07 1246.05 1466.33 1254.33 1463.86 1263.26 1463.19 1272.24 1463.86 1281.21 1466.33 1290.14 1470.07 1298.43 1475.47 1306 1481.89 1312.23 1484.84 1313.83C1486.95 1314.05 1489.14 1313.36 1491.54 1311.74 1494.58 1309.68 1497.38 1307.28 1500.22 1304.95 1511.8 1295.46 1520.81 1295.43 1532.46 1304.87 1535.26 1307.13 1537.98 1309.5 1540.94 1311.54 1546.04 1315.05 1549.97 1314.58 1554.37 1310.28 1562.36 1302.5 1567.36 1292.8 1569.37 1282.6L1570.09 1275.24 1570.38 1272.24 1570.09 1269.23 1569.37 1261.87C1567.36 1251.67 1562.36 1241.98 1554.37 1234.2 1552.17 1232.04 1550.09 1230.85 1547.92 1230.63ZM1726.56 1218.31C1718.15 1218.31 1710.28 1220.5 1702.95 1224.89 1695.62 1229.27 1689.73 1235.53 1685.28 1243.66 1680.83 1251.79 1678.6 1261.17 1678.6 1271.82 1678.6 1282.62 1680.85 1292.17 1685.34 1300.48 1689.83 1308.78 1695.72 1315.11 1703.01 1319.47 1710.3 1323.83 1718.15 1326.01 1726.56 1326.01 1734.89 1326.01 1742.66 1323.83 1749.87 1319.45 1757.08 1315.08 1762.93 1308.73 1767.43 1300.41 1771.93 1292.09 1774.18 1282.56 1774.18 1271.82 1774.18 1261.24 1771.95 1251.88 1767.49 1243.73 1763.02 1235.58 1757.17 1229.3 1749.92 1224.91 1742.68 1220.51 1734.89 1218.31 1726.56 1218.31ZM2652.46 1215.95C2641.36 1215.95 2631.99 1219.24 2624.34 1225.81 2616.69 1232.39 2611.43 1239.95 2608.56 1248.51L2695.35 1248.51C2694.93 1245.22 2693.18 1240.84 2690.08 1235.39 2686.98 1229.93 2682.24 1225.33 2675.86 1221.58 2669.48 1217.83 2661.68 1215.95 2652.46 1215.95ZM1940.49 1215.95C1929.39 1215.95 1920.02 1219.24 1912.37 1225.81 1904.72 1232.39 1899.46 1239.95 1896.59 1248.51L1983.37 1248.51C1982.96 1245.22 1981.21 1240.84 1978.11 1235.39 1975.01 1229.93 1970.27 1225.33 1963.89 1221.58 1957.51 1217.83 1949.71 1215.95 1940.49 1215.95ZM2942.21 1182.81 2986.3 1182.81 2986.3 1361.18 2942.21 1361.18ZM1516.35 1177.47C1568.87 1177.47 1611.45 1219.9 1611.45 1272.24 1611.45 1324.57 1568.87 1367 1516.35 1367 1463.82 1367 1421.24 1324.57 1421.24 1272.24 1421.24 1219.9 1463.82 1177.47 1516.35 1177.47ZM2652.46 1177.42C2670.47 1177.42 2686.14 1181.41 2699.46 1189.4 2712.78 1197.38 2722.89 1208.24 2729.78 1221.98 2736.67 1235.71 2740.11 1251.09 2740.11 1268.11 2740.11 1271.37 2739.62 1276.44 2738.63 1283.35L2606.87 1283.35C2608.13 1296.09 2613.44 1306.5 2622.81 1314.57 2632.18 1322.65 2643.08 1326.69 2655.51 1326.69 2665.4 1326.69 2673.96 1324.44 2681.2 1319.95 2688.43 1315.46 2694.81 1308.6 2700.34 1299.39L2736.74 1316.41C2728 1333.05 2716.84 1345.57 2703.25 1353.97 2689.67 1362.38 2673.42 1366.58 2654.49 1366.58 2636.89 1366.58 2621.12 1362.49 2607.19 1354.33 2593.25 1346.16 2582.37 1334.91 2574.53 1320.58 2566.7 1306.25 2562.78 1290.11 2562.78 1272.16 2562.78 1255.31 2566.56 1239.65 2574.12 1225.16 2581.67 1210.68 2592.27 1199.1 2605.92 1190.43 2619.57 1181.75 2635.08 1177.42 2652.46 1177.42ZM2326.11 1177.42C2348.13 1177.42 2364.92 1183.89 2376.48 1196.82 2388.03 1209.76 2393.81 1227.12 2393.81 1248.91L2393.81 1361.18 2349.72 1361.18 2349.72 1253.97C2349.72 1241.52 2346.73 1232.47 2340.74 1226.81 2334.75 1221.14 2326.38 1218.31 2315.63 1218.31 2308.02 1218.31 2301.21 1220.43 2295.2 1224.67 2289.19 1228.9 2284.51 1234.57 2281.16 1241.66 2277.8 1248.76 2276.13 1256.46 2276.13 1264.75L2276.13 1361.18 2232.03 1361.18 2232.03 1182.81 2274.44 1182.81 2274.44 1200.97 2279.7 1194.85C2283.44 1191.58 2287.89 1188.55 2293.07 1185.77 2303.42 1180.2 2314.43 1177.42 2326.11 1177.42ZM1940.49 1177.42C1958.5 1177.42 1974.16 1181.41 1987.48 1189.4 2000.81 1197.38 2010.91 1208.24 2017.8 1221.98 2024.69 1235.71 2028.14 1251.09 2028.14 1268.11 2028.14 1271.37 2027.65 1276.44 2026.66 1283.35L1894.9 1283.35C1896.15 1296.09 1901.47 1306.5 1910.84 1314.57 1920.21 1322.65 1931.11 1326.69 1943.53 1326.69 1953.42 1326.69 1961.99 1324.44 1969.22 1319.95 1976.46 1315.46 1982.84 1308.6 1988.36 1299.39L2024.76 1316.41C2016.03 1333.05 2004.87 1345.57 1991.28 1353.97 1977.7 1362.38 1961.44 1366.58 1942.52 1366.58 1924.91 1366.58 1909.14 1362.49 1895.21 1354.33 1881.28 1346.16 1870.4 1334.91 1862.56 1320.58 1854.73 1306.25 1850.81 1290.11 1850.81 1272.16 1850.81 1255.31 1854.59 1239.65 1862.14 1225.16 1869.7 1210.68 1880.3 1199.1 1893.95 1190.43 1907.6 1181.75 1923.11 1177.42 1940.49 1177.42ZM2452.74 1134.28 2496.83 1134.28 2496.83 1182.81 2538.76 1182.81 2538.76 1222.02 2496.83 1222.02 2496.83 1299.45C2496.83 1307.96 2498.46 1313.94 2501.71 1317.39 2504.35 1320.89 2509.24 1322.65 2516.38 1322.65 2519.83 1322.65 2522.83 1322.21 2525.36 1321.33 2527.9 1320.46 2532.59 1318.65 2539.44 1315.9L2539.44 1357.63C2530.24 1361.79 2520.07 1363.88 2508.94 1363.88 2500.74 1363.88 2493.08 1362.58 2485.96 1359.97 2478.83 1357.37 2472.96 1353.89 2468.35 1349.54 2457.94 1339.16 2452.74 1325.16 2452.74 1307.54L2452.74 1222.02 2422.64 1222.02 2422.64 1182.81 2452.74 1182.81ZM3019.82 1113.39 3071.23 1113.39 3123.67 1197.72 3175.78 1113.39 3227.59 1113.39 3152.51 1232.52 3233 1361.18 3181.58 1361.18 3123.68 1269.34 3065.78 1361.18 3014.41 1361.18 3094.56 1232.52ZM2856.14 1113.39 2900.23 1113.39 2900.23 1361.18 2856.14 1361.18ZM2772.77 1113.39 2816.87 1113.39 2816.87 1361.18 2772.77 1361.18ZM2141.24 1113.39 2186.01 1113.39 2186.01 1361.18 2141.24 1361.18ZM1772.49 1113.39 1816.58 1113.39 1816.58 1361.18 1774.18 1361.18 1774.18 1342.98 1768.78 1349.04C1765.08 1352.23 1760.68 1355.24 1755.59 1358.08 1745.4 1363.74 1733.92 1366.58 1721.15 1366.58 1704.89 1366.58 1690.19 1362.48 1677.04 1354.29 1663.9 1346.11 1653.52 1334.84 1645.92 1320.51 1638.31 1306.17 1634.51 1289.94 1634.51 1271.82 1634.51 1253.84 1638.3 1237.71 1645.86 1223.44 1653.43 1209.18 1663.81 1197.94 1676.99 1189.73 1690.17 1181.52 1704.89 1177.42 1721.15 1177.42 1733.92 1177.42 1745.43 1180.27 1755.69 1185.97 1760.82 1188.83 1765.24 1191.87 1768.95 1195.11L1773.8 1200.66 1772.49 1184.44ZM2964.26 1108C2972.25 1108 2978.99 1110.74 2984.49 1116.21 2989.98 1121.69 2992.73 1128.29 2992.73 1136.03 2992.73 1143.96 2989.97 1150.67 2984.46 1156.16 2978.95 1161.65 2972.21 1164.4 2964.26 1164.4 2956.26 1164.4 2949.52 1161.66 2944.02 1156.18 2938.53 1150.71 2935.79 1143.99 2935.79 1136.03 2935.79 1128.26 2938.52 1121.65 2944 1116.19 2949.48 1110.73 2956.23 1108 2964.26 1108ZM1296.92 1108C1315.69 1108 1332.8 1111.47 1348.25 1118.42 1363.7 1125.37 1377.61 1136.18 1389.99 1150.85L1359.21 1179.9C1349.6 1169.58 1339.94 1162.12 1330.25 1157.51 1320.55 1152.89 1309.44 1150.58 1296.92 1150.58 1281.29 1150.58 1267.03 1154.14 1254.16 1161.25 1241.29 1168.37 1231.06 1178.46 1223.48 1191.51 1215.9 1204.57 1212.11 1219.77 1212.11 1237.11 1212.11 1254.61 1215.92 1269.92 1223.53 1283.04 1231.15 1296.16 1241.38 1306.26 1254.21 1313.35 1267.04 1320.45 1281.28 1323.99 1296.92 1323.99 1322.81 1323.99 1345.7 1312.65 1365.59 1289.95L1396.75 1319.58C1384.09 1335.27 1369.33 1347.03 1352.49 1354.85 1335.64 1362.67 1317.12 1366.58 1296.92 1366.58 1272.83 1366.58 1250.83 1360.92 1230.91 1349.62 1211 1338.31 1195.37 1322.73 1184.02 1302.89 1172.67 1283.04 1167 1261.12 1167 1237.11 1167 1213.26 1172.66 1191.44 1183.97 1171.66 1195.28 1151.88 1210.91 1136.32 1230.87 1124.99 1250.82 1113.66 1272.84 1108 1296.92 1108Z" fill="url(#fill1)" fill-rule="evenodd"/></g></svg>